<svg xmlns="http://www.w3.org/2000/svg" width="96" height="124" version="1.1"><style type="text/css">#background { fill: none; } .arrows { fill: #000; stroke: none; } .selected&gt;.arrows { fill: #fff; } .checkmark { fill: #000; font-family: sans-serif; font-size: 10pt; text-anchor: middle; } .trash { fill: #888; } .zoom { fill: none; stroke: #888; stroke-width: 2; stroke-linecap: round; } .zoom&gt;.center { fill: #888; stroke-width: 0; }</style><rect id="background" width="96" height="124" x="0" y="0"/><g><path d="M 13,1.5 13,14.5 1.74,8 z" class="arrows"/><path d="M 17.5,3 30.5,3 24,14.26 z" class="arrows"/><path d="M 35,1.5 35,14.5 46.26,8 z" class="arrows"/></g><g class="selected"><path d="M 13,1.5 13,14.5 1.74,8 z" class="arrows" transform="translate(0, 16)"/><path d="M 17.5,3 30.5,3 24,14.26 z" class="arrows" transform="translate(0, 16)"/><path d="M 35,1.5 35,14.5 46.26,8 z" class="arrows" transform="translate(0, 16)"/></g><text x="55.5" y="28" class="checkmark">✓</text><g class="trash"><path d="M 2,41 v 6 h 42 v -6 h -10.5 l -3,-3 h -15 l -3,3 z"/><rect width="36" height="20" x="5" y="50"/><rect width="36" height="42" x="5" y="50" rx="4" ry="4"/></g><g class="zoom"><circle cx="16" cy="108" r="11.5"/><circle cx="16" cy="108" r="4.3" class="center"/><path d="m 28,108 h3"/><path d="m 1,108 h3"/><path d="m 16,120 v3"/><path d="m 16,93 v3"/></g><g class="zoom"><circle cx="48" cy="108" r="15"/><path d="m 48,101.6 v12.8"/><path d="m 41.6,108 h12.8"/></g><g class="zoom"><circle cx="80" cy="108" r="15"/><path d="m 73.6,108 h12.8"/></g></svg>